/* XPM */
static char *pixil_frame_0_16_1714484332[] = {
/* columns rows colors chars-per-pixel */
"64 64 2 1 ",
"  c black",
". c white",
/* pixels */
"                                                                ",
"                                                                ",
"                                                                ",
"                                                                ",
"                                                                ",
"                                                                ",
"                                                                ",
"                                                                ",
"                                                                ",
"                                                                ",
"                                                                ",
"                                                                ",
"                                                                ",
"                        ................                        ",
"                        ................                        ",
"                        ................                        ",
"                        ................                        ",
"                        ................                        ",
"                        ................                        ",
"                        ................                        ",
"                        ................                        ",
"                ........                ........                ",
"                ........                ........                ",
"                ........                ........                ",
"                ........                ........                ",
"                ........                ........                ",
"                ........                ........                ",
"                ........                ........                ",
"                ........                ........                ",
"                                ........                        ",
"                                ........                        ",
"                                ........                        ",
"                                ........                        ",
"                                ........                        ",
"                                ........                        ",
"                                ........                        ",
"                                ........                        ",
"                ........                ........                ",
"                ........                ........                ",
"                ........                ........                ",
"                ........                ........                ",
"                ........                ........                ",
"                ........                ........                ",
"                ........                ........                ",
"                ........                ........                ",
"                        ................                        ",
"                        ................                        ",
"                        ................                        ",
"                        ................                        ",
"                        ................                        ",
"                        ................                        ",
"                        ................                        ",
"                        ................                        ",
"                                                                ",
"                                                                ",
"                                                                ",
"                                                                ",
"                                                                ",
"                                                                ",
"                                                                ",
"                                                                ",
"                                                                ",
"                                                                ",
"                                                                "
};
