/* XPM */
static char *pixil_frame_0_18_1714484331[] = {
/* columns rows colors chars-per-pixel */
"64 64 2 1 ",
"  c black",
". c white",
/* pixels */
"                                                                ",
"                                                                ",
"                                                                ",
"                                                                ",
"                                                                ",
"                                                                ",
"                                                                ",
"                                                                ",
"                                                                ",
"                                                                ",
"                                                                ",
"                                                                ",
"                                                                ",
"                ................................                ",
"                ................................                ",
"                ................................                ",
"                ................................                ",
"                ................................                ",
"                ................................                ",
"                ................................                ",
"                ................................                ",
"                ........                                        ",
"                ........                                        ",
"                ........                                        ",
"                ........                                        ",
"                ........                                        ",
"                ........                                        ",
"                ........                                        ",
"                ........                                        ",
"                ........................                        ",
"                ........................                        ",
"                ........................                        ",
"                ........................                        ",
"                ........................                        ",
"                ........................                        ",
"                ........................                        ",
"                ........................                        ",
"                                        ........                ",
"                                        ........                ",
"                                        ........                ",
"                                        ........                ",
"                                        ........                ",
"                                        ........                ",
"                                        ........                ",
"                                        ........                ",
"                ........................                        ",
"                ........................                        ",
"                ........................                        ",
"                ........................                        ",
"                ........................                        ",
"                ........................                        ",
"                ........................                        ",
"                ........................                        ",
"                                                                ",
"                                                                ",
"                                                                ",
"                                                                ",
"                                                                ",
"                                                                ",
"                                                                ",
"                                                                ",
"                                                                ",
"                                                                ",
"                                                                "
};
