/* XPM */
static char *_125278a27604ec8bb7ead1427014297bJy5XOyOEcH1Iv4V[] = {
/* columns rows colors chars-per-pixel */
"416 16 2 1 ",
"  c black",
". c white",
/* pixels */
"                                                                                                                                                                                                                                                                                                                                                                                                                                ",
"                                                                                                                                                                                                                                                                                                                                                                                                                                ",
"                                                                                                                                                                                                                                                                                                                                                                                                                                ",
"      ....          ......            ....          ......          ........        ........          ....          ..    ..         ......               ..        ..    ..        ..             ..      ..       ..    ..          ....          ......            ....          ......            ......       ..........       ..    ..       ..      ..      ..      ..       ..    ..       ..      ..       ........    ",
"      ....          ......            ....          ......          ........        ........          ....          ..    ..         ......               ..        ..    ..        ..             ..      ..       ..    ..          ....          ......            ....          ......            ......       ..........       ..    ..       ..      ..      ..      ..       ..    ..       ..      ..       ........    ",
"    ..    ..        ..    ..        ..    ..        ..    ..        ..              ..              ..              ..    ..           ..                 ..        ..  ..          ..             ....  ....       ....  ..        ..    ..        ..    ..        ..    ..        ..    ..        ..                 ..           ..    ..       ..      ..      ..      ..       ..    ..       ..      ..           ..      ",
"    ..    ..        ..    ..        ..    ..        ..    ..        ..              ..              ..              ..    ..           ..                 ..        ..  ..          ..             ....  ....       ....  ..        ..    ..        ..    ..        ..    ..        ..    ..        ..                 ..           ..    ..       ..      ..      ..      ..       ..    ..       ..      ..           ..      ",
"    ........        ......          ..              ..    ..        ......          ......          ..  ....        ........           ..                 ..        ....            ..             ..  ..  ..       ..  ....        ..    ..        ......          ..    ..        ......            ....             ..           ..    ..         ..  ..        ..  ..  ..         ....           ......           ..        ",
"    ........        ......          ..              ..    ..        ......          ......          ..  ....        ........           ..                 ..        ....            ..             ..  ..  ..       ..  ....        ..    ..        ......          ..    ..        ......            ....             ..           ..    ..         ..  ..        ..  ..  ..         ....           ......           ..        ",
"    ..    ..        ..    ..        ..    ..        ..    ..        ..              ..              ..    ..        ..    ..           ..           ..    ..        ..  ..          ..             ..      ..       ..    ..        ..    ..        ..              ..  ..          ..  ..                ..           ..           ..    ..         ..  ..        ....  ....       ..    ..           ..           ..          ",
"    ..    ..        ..    ..        ..    ..        ..    ..        ..              ..              ..    ..        ..    ..           ..           ..    ..        ..  ..          ..             ..      ..       ..    ..        ..    ..        ..              ..  ..          ..  ..                ..           ..           ..    ..         ..  ..        ....  ....       ..    ..           ..           ..          ",
"    ..    ..        ......            ....          ......          ........        ..                ....          ..    ..         ......           ....          ..    ..        ........       ..      ..       ..    ..          ....          ..                ..  ..        ..    ..        ......             ..             ....             ..          ..      ..       ..    ..           ..           ........    ",
"    ..    ..        ......            ....          ......          ........        ..                ....          ..    ..         ......           ....          ..    ..        ........       ..      ..       ..    ..          ....          ..                ..  ..        ..    ..        ......             ..             ....             ..          ..      ..       ..    ..           ..           ........    ",
"                                                                                                                                                                                                                                                                                                                                                                                                                                ",
"                                                                                                                                                                                                                                                                                                                                                                                                                                ",
"                                                                                                                                                                                                                                                                                                                                                                                                                                "
};
