/* XPM */
static char *result[] = {
/* columns rows colors chars-per-pixel */
"64 64 2 1 ",
"  c #333333",
". c #990030",
/* pixels */
"                                                                ",
"                                                                ",
"   .............................................................",
"   .............................................................",
"   .............................................................",
"   .............................................................",
"   .............................................................",
"   .............................................................",
"   .............................................................",
"   .............................................................",
"   ...............                                ..............",
"   ...............                                ..............",
"   ...............                                ..............",
"   ...............                                ..............",
"   ...............                                ..............",
"   ...............                                ..............",
"   ...............                                ..............",
"   ...............                                ..............",
"   ...............        ......................................",
"   ...............        ......................................",
"   ...............        ......................................",
"   ...............        ......................................",
"   ...............        ......................................",
"   ...............        ......................................",
"   ...............        ......................................",
"   ...............        ......................................",
"   ...............                        ......................",
"   ...............                        ......................",
"   ...............                        ......................",
"   ...............                        ......................",
"   ...............                        ......................",
"   ...............                        ......................",
"   ...............                        ......................",
"   ...............                        ......................",
"   ...............        ......................................",
"   ...............        ......................................",
"   ...............        ......................................",
"   ...............        ......................................",
"   ...............        ......................................",
"   ...............        ......................................",
"   ...............        ......................................",
"   ...............        ......................................",
"   ...............                                ..............",
"   ...............                                ..............",
"   ...............                                ..............",
"   ...............                                ..............",
"   ...............                                ..............",
"   ...............                                ..............",
"   ...............                                ..............",
"   ...............                                ..............",
"   .............................................................",
"   .............................................................",
"   .............................................................",
"   .............................................................",
"   .............................................................",
"   .............................................................",
"   .............................................................",
"   .............................................................",
"   .............................................................",
"   .............................................................",
"   .............................................................",
"   .............................................................",
"   .............................................................",
"   ............................................................."
};
