/* XPM */
static char *_cea9e996ff34294c4315474787d3dabF6w71Oy7KFjaKmhR[] = {
/* columns rows colors chars-per-pixel */
"64 64 3 1 ",
"  c #EEFF00",
". c white",
"X c #000001",
/* pixels */
"                                        ........................",
"                                        ........................",
"                                        ........................",
"                                        ........................",
"                                        ........................",
"                                        ........................",
"                                        ........................",
"                                        ........................",
"                                        ........................",
"                                        ........................",
"                                        ........................",
"                                        ........................",
"                                        ........................",
"                                        ........................",
"                                        ........................",
"                                        ........................",
"                                        ........................",
"                                        ........................",
"                                        ........................",
"                                        ........................",
"                                        ........................",
"                                        ........................",
"                                        ........................",
"                                        ........................",
"                                        ........................",
"                                        ........................",
"                                        ........................",
"                                        ........................",
"                                        ........................",
"                                        ........................",
"                                        ........................",
"                                        ........................",
"                                        XXXXXXXXXXXXXXXXXXXXXXXX",
"                                        XXXXXXXXXXXXXXXXXXXXXXXX",
"                                        XXXXXXXXXXXXXXXXXXXXXXXX",
"                                        XXXXXXXXXXXXXXXXXXXXXXXX",
"                                        XXXXXXXXXXXXXXXXXXXXXXXX",
"                                        XXXXXXXXXXXXXXXXXXXXXXXX",
"                                        XXXXXXXXXXXXXXXXXXXXXXXX",
"                                        XXXXXXXXXXXXXXXXXXXXXXXX",
"                                        XXXXXXXXXXXXXXXXXXXXXXXX",
"                                        XXXXXXXXXXXXXXXXXXXXXXXX",
"                                        XXXXXXXXXXXXXXXXXXXXXXXX",
"                                        XXXXXXXXXXXXXXXXXXXXXXXX",
"                                        XXXXXXXXXXXXXXXXXXXXXXXX",
"                                        XXXXXXXXXXXXXXXXXXXXXXXX",
"                                        XXXXXXXXXXXXXXXXXXXXXXXX",
"                                        XXXXXXXXXXXXXXXXXXXXXXXX",
"                                        XXXXXXXXXXXXXXXXXXXXXXXX",
"                                        XXXXXXXXXXXXXXXXXXXXXXXX",
"                                        XXXXXXXXXXXXXXXXXXXXXXXX",
"                                        XXXXXXXXXXXXXXXXXXXXXXXX",
"                                        XXXXXXXXXXXXXXXXXXXXXXXX",
"                                        XXXXXXXXXXXXXXXXXXXXXXXX",
"                                        XXXXXXXXXXXXXXXXXXXXXXXX",
"                                        XXXXXXXXXXXXXXXXXXXXXXXX",
"                                        XXXXXXXXXXXXXXXXXXXXXXXX",
"                                        XXXXXXXXXXXXXXXXXXXXXXXX",
"                                        XXXXXXXXXXXXXXXXXXXXXXXX",
"                                        XXXXXXXXXXXXXXXXXXXXXXXX",
"                                        XXXXXXXXXXXXXXXXXXXXXXXX",
"                                        XXXXXXXXXXXXXXXXXXXXXXXX",
"                                        XXXXXXXXXXXXXXXXXXXXXXXX",
"                                        XXXXXXXXXXXXXXXXXXXXXXXX"
};
