/* XPM */
static char *_057a198b72a4d738ffce44bc9de278ct92Q2sqGd124eYsT[] = {
/* columns rows colors chars-per-pixel */
"64 64 3 1 ",
"  c #000001",
". c #EEFF00",
"X c white",
/* pixels */
"                        ........................................",
"                        ........................................",
"                        ........................................",
"                        ........................................",
"                        ........................................",
"                        ........................................",
"                        ........................................",
"                        ........................................",
"                        ........................................",
"                        ........................................",
"                        ........................................",
"                        ........................................",
"                        ........................................",
"                        ........................................",
"                        ........................................",
"                        ........................................",
"                        ........................................",
"                        ........................................",
"                        ........................................",
"                        ........................................",
"                        ........................................",
"                        ........................................",
"                        ........................................",
"                        ........................................",
"                        ........................................",
"                        ........................................",
"                        ........................................",
"                        ........................................",
"                        ........................................",
"                        ........................................",
"                        ........................................",
"                        ........................................",
"XXXXXXXXXXXXXXXXXXXXXXXX........................................",
"XXXXXXXXXXXXXXXXXXXXXXXX........................................",
"XXXXXXXXXXXXXXXXXXXXXXXX........................................",
"XXXXXXXXXXXXXXXXXXXXXXXX........................................",
"XXXXXXXXXXXXXXXXXXXXXXXX........................................",
"XXXXXXXXXXXXXXXXXXXXXXXX........................................",
"XXXXXXXXXXXXXXXXXXXXXXXX........................................",
"XXXXXXXXXXXXXXXXXXXXXXXX........................................",
"XXXXXXXXXXXXXXXXXXXXXXXX........................................",
"XXXXXXXXXXXXXXXXXXXXXXXX........................................",
"XXXXXXXXXXXXXXXXXXXXXXXX........................................",
"XXXXXXXXXXXXXXXXXXXXXXXX........................................",
"XXXXXXXXXXXXXXXXXXXXXXXX........................................",
"XXXXXXXXXXXXXXXXXXXXXXXX........................................",
"XXXXXXXXXXXXXXXXXXXXXXXX........................................",
"XXXXXXXXXXXXXXXXXXXXXXXX........................................",
"XXXXXXXXXXXXXXXXXXXXXXXX........................................",
"XXXXXXXXXXXXXXXXXXXXXXXX........................................",
"XXXXXXXXXXXXXXXXXXXXXXXX........................................",
"XXXXXXXXXXXXXXXXXXXXXXXX........................................",
"XXXXXXXXXXXXXXXXXXXXXXXX........................................",
"XXXXXXXXXXXXXXXXXXXXXXXX........................................",
"XXXXXXXXXXXXXXXXXXXXXXXX........................................",
"XXXXXXXXXXXXXXXXXXXXXXXX........................................",
"XXXXXXXXXXXXXXXXXXXXXXXX........................................",
"XXXXXXXXXXXXXXXXXXXXXXXX........................................",
"XXXXXXXXXXXXXXXXXXXXXXXX........................................",
"XXXXXXXXXXXXXXXXXXXXXXXX........................................",
"XXXXXXXXXXXXXXXXXXXXXXXX........................................",
"XXXXXXXXXXXXXXXXXXXXXXXX........................................",
"XXXXXXXXXXXXXXXXXXXXXXXX........................................",
"XXXXXXXXXXXXXXXXXXXXXXXX........................................"
};
