/* XPM */
static char *b263c511c9a84c14f7327cf551179b73FWSGz9F05rVxCQ1Y[] = {
/* columns rows colors chars-per-pixel */
"64 64 3 1 ",
"  c #000001",
". c #EEFF00",
"X c white",
/* pixels */
"................................................................",
"................................................................",
"................................................................",
"................................................................",
"................................................................",
"................................................................",
"................................................................",
"................................................................",
"................................................................",
"................................................................",
"................................................................",
"................................................................",
"................................................................",
"................................................................",
"................................................................",
"................................................................",
"................................................................",
"................................................................",
"................................................................",
"................................................................",
"................................................................",
"................................................................",
"................................................................",
"................................................................",
"................................................................",
"................................................................",
"................................................................",
"................................................................",
"................................................................",
"................................................................",
"................................................................",
"................................................................",
"................................................................",
"................................................................",
"................................................................",
"................................................................",
"................................................................",
"................................................................",
"................................................................",
"................................................................",
"                                XXXXXXXXXXXXXXXXXXXXXXXXXXXXXXXX",
"                                XXXXXXXXXXXXXXXXXXXXXXXXXXXXXXXX",
"                                XXXXXXXXXXXXXXXXXXXXXXXXXXXXXXXX",
"                                XXXXXXXXXXXXXXXXXXXXXXXXXXXXXXXX",
"                                XXXXXXXXXXXXXXXXXXXXXXXXXXXXXXXX",
"                                XXXXXXXXXXXXXXXXXXXXXXXXXXXXXXXX",
"                                XXXXXXXXXXXXXXXXXXXXXXXXXXXXXXXX",
"                                XXXXXXXXXXXXXXXXXXXXXXXXXXXXXXXX",
"                                XXXXXXXXXXXXXXXXXXXXXXXXXXXXXXXX",
"                                XXXXXXXXXXXXXXXXXXXXXXXXXXXXXXXX",
"                                XXXXXXXXXXXXXXXXXXXXXXXXXXXXXXXX",
"                                XXXXXXXXXXXXXXXXXXXXXXXXXXXXXXXX",
"                                XXXXXXXXXXXXXXXXXXXXXXXXXXXXXXXX",
"                                XXXXXXXXXXXXXXXXXXXXXXXXXXXXXXXX",
"                                XXXXXXXXXXXXXXXXXXXXXXXXXXXXXXXX",
"                                XXXXXXXXXXXXXXXXXXXXXXXXXXXXXXXX",
"                                XXXXXXXXXXXXXXXXXXXXXXXXXXXXXXXX",
"                                XXXXXXXXXXXXXXXXXXXXXXXXXXXXXXXX",
"                                XXXXXXXXXXXXXXXXXXXXXXXXXXXXXXXX",
"                                XXXXXXXXXXXXXXXXXXXXXXXXXXXXXXXX",
"                                XXXXXXXXXXXXXXXXXXXXXXXXXXXXXXXX",
"                                XXXXXXXXXXXXXXXXXXXXXXXXXXXXXXXX",
"                                XXXXXXXXXXXXXXXXXXXXXXXXXXXXXXXX",
"                                XXXXXXXXXXXXXXXXXXXXXXXXXXXXXXXX"
};
