/* XPM */
static char *ae48d9bb74c9447f95923a72f04c3148k1O1P1iWiutvnLlP[] = {
/* columns rows colors chars-per-pixel */
"64 64 6 1 ",
"  c #000001",
". c #464646",
"X c #ED1C24",
"o c #000000",
"O c #FFC20E",
"+ c #6F3198",
/* pixels */
"oooooooooooooooooooooooooooooooooooooooooooooooooooooooooooooooo",
"oooooooooooooooooooooooooooooooooooooooooooooooooooooooooooooooo",
"oooooooooooooooooooooooooooooooooooooooooooooooooooooooooooooooo",
"oooooooooooooooooooooooooooooooooooooooooooooooooooooooooooooooo",
"oooooooooooooooooooooooooooooooooooooooooooooooooooooooooooooooo",
"oooooooooooooooooooooooooooooooooooooooooooooooooooooooooooooooo",
"oooooooooooooooooooooooooooooooooooooooooooooooooooooooooooooooo",
"oooooooooooooooooooooooooooooooooooooooooooooooooooooooooooooooo",
"oooooooooooooooooooooooooooooooooooooooooooooooooooooooooooooooo",
"oooooooooooooooooooooooooooooooooooooooooooooooooooooooooooooooo",
"oooooooooooooooooooooooooooooooooooooooooooooooooooooooooooooooo",
"oooooooooooooooooooooooooooooooooooooooooooooooooooooooooooooooo",
"oooooooooooooooooooooooooooooooooooooooooooooooooooooooooooooooo",
"ooooooooooo              oooooooooooooo              ooooooooooo",
"ooooooooooo ++++++++++++ o            o +++++++++++  ooooooooooo",
"oooooooooo ++++++++++++.   .......+++   ++++++++++ ++ oooooooooo",
"ooooooooo .....++++++..++++++++++++++++++++++++++ +++  ooooooooo",
"oooooooo  +++++......+++++++++++++++++.+....++++ +++++  oooooooo",
"ooooooo  ++++++++++++++++++++++++++++.+++++++++ +++++.+  ooooooo",
"oooooo  +++++++++++++++++++++++++++..++++++   ++++++++.+  oooooo",
"oooooo +++++++++++++++++++++++++++.++++++     ++++++++.++ oooooo",
"ooooo  +++++++++++++++............++++++      +++++++++.+  ooooo",
"ooooo .++.+...........+++++++++++++++++       +++++++++++OOooooo",
"ooooo X++.+++      +++     +++++++++++        +++++++++++OOooooo",
"ooooo X++.+++      ++++++++      +++          +++++++++++OOooooo",
"ooooo X++.+++      ++++++++++++++             +++++++++++OOooooo",
"ooooo X++.+++      +++++++++++++++++          +++++++++++OOooooo",
"ooooo X++.+++      +++++++++++++++++          ++++++++++++ ooooo",
"ooooo X++.+++      +++++++++++++++++          ++++++++++++ ooooo",
"ooooo X+++.++      +++++++++++++++++          ++++++++++++ ooooo",
"ooooo X+++.++      +++++++++++++++++          ++++++++++++ ooooo",
"ooooo X+++.++      +++++++++++++++++          ++++++++++++ ooooo",
"ooooo X+++.++      +++++++++++++++++          ++++++++++++ ooooo",
"ooooo X+++.++      +++++++++++++++++          ++++++++++++ ooooo",
"ooooo X+++.++      +++++++++++++++++          ++++++++++++ ooooo",
"ooooo X++.+++      +++++++++++++++++          ++++++++++++ ooooo",
"ooooo X++.+++      +++++++++++++++++          ++++++++++++ ooooo",
"ooooo X++.+++      +++++++++++++++++          +++++++++++OOooooo",
"ooooo X++.+++      ++++++++++++++             +++++++++++OOooooo",
"ooooo X++.+++      ++++++++      +++          +++++++++++OOooooo",
"ooooo X++.+++      +++     +++++++++++        +++++++++++OOooooo",
"ooooo .++.+...........+++++++++++++++++       +++++++++++OOooooo",
"ooooo  +++++++++++++++............++++++      +++++++++.+  ooooo",
"oooooo +++++++++++++++++++++++++++.++++++     ++++++++.++ oooooo",
"oooooo  +++++++++++++++++++++++++++..++++++   ++++++++.+  oooooo",
"ooooooo  ++++++++++++++++++++++++++++.+++++++++ +++++.+  ooooooo",
"oooooooo  +++++......+++++++++++++++++.+....++++ +++++  oooooooo",
"ooooooooo .....++++++..++++++++++++++++++++++++++ +++  ooooooooo",
"oooooooooo ++++++++++++.   .......+++   ++++++++++ ++ oooooooooo",
"ooooooooooo ++++++++++++ o            o +++++++++++  ooooooooooo",
"ooooooooooo              oooooooooooooo              ooooooooooo",
"oooooooooooooooooooooooooooooooooooooooooooooooooooooooooooooooo",
"oooooooooooooooooooooooooooooooooooooooooooooooooooooooooooooooo",
"oooooooooooooooooooooooooooooooooooooooooooooooooooooooooooooooo",
"oooooooooooooooooooooooooooooooooooooooooooooooooooooooooooooooo",
"oooooooooooooooooooooooooooooooooooooooooooooooooooooooooooooooo",
"oooooooooooooooooooooooooooooooooooooooooooooooooooooooooooooooo",
"oooooooooooooooooooooooooooooooooooooooooooooooooooooooooooooooo",
"oooooooooooooooooooooooooooooooooooooooooooooooooooooooooooooooo",
"oooooooooooooooooooooooooooooooooooooooooooooooooooooooooooooooo",
"oooooooooooooooooooooooooooooooooooooooooooooooooooooooooooooooo",
"oooooooooooooooooooooooooooooooooooooooooooooooooooooooooooooooo",
"oooooooooooooooooooooooooooooooooooooooooooooooooooooooooooooooo",
"oooooooooooooooooooooooooooooooooooooooooooooooooooooooooooooooo"
};
