/* XPM */
static char *_6469790e63c483b86e6a74587d61d86qliC2dPHJFkyS1KE[] = {
/* columns rows colors chars-per-pixel */
"64 64 4 1 ",
"  c black",
". c #990030",
"X c #00B7EF",
"o c #B4B4B4",
/* pixels */
"XXXXXXXXXXXXXXXXXXXXXXXXXXXXXXXXXXXXXXXXXXXXXXXXXXXXXXXXXX      ",
"XXXXXXXXXXXXXXXXXXXXXXXXXXXXXXXXXXXXXXXXXXXXXXXXXXXXXXXXXX      ",
"XXXXXXXXXXXXXXXXXXXXXXXXXXXXXXXXXXXXXXXXXXXXXXXXXXXXXXXX  oo..  ",
"XXXXXXXXXXXXXXXXXXXXXXXXXXXXXXXXXXXXXXXXXXXXXXXXXXXXXXXX  oo..  ",
"XXXXXXXXXXXXXXXXXXXXXXXXXXXXXXXXXXXXXXXXXXXXXXXXXXXXXX  oooo..  ",
"XXXXXXXXXXXXXXXXXXXXXXXXXXXXXXXXXXXXXXXXXXXXXXXXXXXXXX  oooo..  ",
"XXXXXXXXXXXXXXXXXXXXXXXXXXXXXXXXXXXXXXXXXXXXXXXXXXXX  oooooo..  ",
"XXXXXXXXXXXXXXXXXXXXXXXXXXXXXXXXXXXXXXXXXXXXXXXXXXXX  oooooo..  ",
"XXXXXXXXXXXXXXXXXXXXXXXXXXXXXXXXXXXXXXXXXXXXXXXXXX  oooooo....  ",
"XXXXXXXXXXXXXXXXXXXXXXXXXXXXXXXXXXXXXXXXXXXXXXXXXX  oooooo....  ",
"XXXXXXXXXXXXXXXXXXXXXXXXXXXXXXXXXXXXXXXXXXXXXXXX  oooooooo..  ..",
"XXXXXXXXXXXXXXXXXXXXXXXXXXXXXXXXXXXXXXXXXXXXXXXX  oooooooo..  ..",
"XXXXXXXXXXXXXXXXXXXXXXXXXXXXXXXXXXXXXXXXXXXXXX  oooooo......  ..",
"XXXXXXXXXXXXXXXXXXXXXXXXXXXXXXXXXXXXXXXXXXXXXX  oooooo......  ..",
"XXXXXXXXXXXXXXXXXXXXXXXXXXXXXXXXXXXXXXXXXXXX  oooooooo....  ....",
"XXXXXXXXXXXXXXXXXXXXXXXXXXXXXXXXXXXXXXXXXXXX  oooooooo....  ....",
"XXXXXXXXXXXXXXXXXXXXXXXXXXXXXXXXXXXXXXXXXX  oooooooooo..  ......",
"XXXXXXXXXXXXXXXXXXXXXXXXXXXXXXXXXXXXXXXXXX  oooooooooo..  ......",
"XXXXXXXXXXXXXXXXXXXXXXXXXXXXXXXXXXXXXXXX  oooooooooooo..  ..XX..",
"XXXXXXXXXXXXXXXXXXXXXXXXXXXXXXXXXXXXXXXX  oooooooooooo..  ..XX..",
"XXXXXXXXXXXXXXXXXXXXXXXXXXXXXXXXXXXXXX  oooooooooooooo..XX......",
"XXXXXXXXXXXXXXXXXXXXXXXXXXXXXXXXXXXXXX  oooooooooooooo..XX......",
"XXXXXXXXXXXXXXXXXXXXXXXXXXXXXXXXXXXX  oooooooooooooo  ........XX",
"XXXXXXXXXXXXXXXXXXXXXXXXXXXXXXXXXXXX  oooooooooooooo  ........XX",
"XXXXXXXXXXXXXXXXXXXXXXXXXXXXXXXXXX  oooooooooooooo..  ......XXXX",
"XXXXXXXXXXXXXXXXXXXXXXXXXXXXXXXXXX  oooooooooooooo..  ......XXXX",
"XXXXXXXXXXXXXXXXXXXXXXXXXXXXXXXX  oooooooooooooo..  ..........XX",
"XXXXXXXXXXXXXXXXXXXXXXXXXXXXXXXX  oooooooooooooo..  ..........XX",
"XXXXXXXXXXXXXXXXXXXXXXXXXXXXXX  oooooooooooooo............XX..XX",
"XXXXXXXXXXXXXXXXXXXXXXXXXXXXXX  oooooooooooooo............XX..XX",
"XXXXXXXXXXXXXXXXXXXXXXXXXXXX  oooooooooooooooo..  ..XX....XX..XX",
"XXXXXXXXXXXXXXXXXXXXXXXXXXXX  oooooooooooooooo..  ..XX....XX..XX",
"XXXXXXXXXXXXXXXXXXXXXXXXXX  oooooooooooooooooo..XX..XX........XX",
"XXXXXXXXXXXXXXXXXXXXXXXXXX  oooooooooooooooooo..XX..XX........XX",
"XXXXXXXXXXXXXXXXXXXXXXXX  oooooooooooooooooooo  XX..XXXXXX....XX",
"XXXXXXXXXXXXXXXXXXXXXXXX  oooooooooooooooooooo  XX..XXXXXX....XX",
"XXXXXXXXXXXXXXXXXXXXXX  oooooooooooooooooooo  XXXX..XXXXXXXX..XX",
"XXXXXXXXXXXXXXXXXXXXXX  oooooooooooooooooooo  XXXX..XXXXXXXX..XX",
"XXXXXXXXXXXXXXXXXXXX  oooooooooooooooooooo  XXXXXX..XXXXXXXX..XX",
"XXXXXXXXXXXXXXXXXXXX  oooooooooooooooooooo  XXXXXX..XXXXXXXX..XX",
"XXXXXXXXXXXXXXXXXX  oooooooooooooooooooo  XXXXXX....XXXXXXXX..XX",
"XXXXXXXXXXXXXXXXXX  oooooooooooooooooooo  XXXXXX....XXXXXXXX..XX",
"XXXXXXXXXXXXXXXX  oooooo                XXXXXXXX..XXXXXXXXXXXXXX",
"XXXXXXXXXXXXXXXX  oooooo                XXXXXXXX..XXXXXXXXXXXXXX",
"XXXXXXXXXXXXXX  oooooo  XXXXXXXXXXXXXXXXXXXXXX..XXXXXXXXXXXXXXXX",
"XXXXXXXXXXXXXX  oooooo  XXXXXXXXXXXXXXXXXXXXXX..XXXXXXXXXXXXXXXX",
"XXXXXXXXXXXX  oooooo  XXXXXXXXXXXXXXXXXXXXXXXX....XXXXXXXXXXXXXX",
"XXXXXXXXXXXX  oooooo  XXXXXXXXXXXXXXXXXXXXXXXX....XXXXXXXXXXXXXX",
"XXXXXXXXXX  oooooo  XXXXXXXXXXXXXXXXXXXXXXXXXXXX..XXXXXXXXXXXXXX",
"XXXXXXXXXX  oooooo  XXXXXXXXXXXXXXXXXXXXXXXXXXXX..XXXXXXXXXXXXXX",
"XXXXXXXX  oooooo  XXXXXXXXXXXXXXXXXXXXXXXXXXXXXXXXXXXXXXXX..XXXX",
"XXXXXXXX  oooooo  XXXXXXXXXXXXXXXXXXXXXXXXXXXXXXXXXXXXXXXX..XXXX",
"XXXXXX  oooooo  XXXXXXXXXXXXXXXXXXXXXXXXXXXXXXXXXXXXXXXXXX....XX",
"XXXXXX  oooooo  XXXXXXXXXXXXXXXXXXXXXXXXXXXXXXXXXXXXXXXXXX....XX",
"XXXX  oooooo  XXXXXXXXXXXXXXXXXXXXXXXXXXXXXXXXXXXXXXXXXXXXXX..XX",
"XXXX  oooooo  XXXXXXXXXXXXXXXXXXXXXXXXXXXXXXXXXXXXXXXXXXXXXX..XX",
"XX  oooooo  XXXXXXXXXXXXXXXXXXXXXXXXXXXXXXXXXXXX..XXXXXXXXXXXXXX",
"XX  oooooo  XXXXXXXXXXXXXXXXXXXXXXXXXXXXXXXXXXXX..XXXXXXXXXXXXXX",
"  oooooo  XXXXXXXXXXXXXXXXXXXXXXXXXXXXXXXXXXXXXXXXXXXXXXXXXXXXXX",
"  oooooo  XXXXXXXXXXXXXXXXXXXXXXXXXXXXXXXXXXXXXXXXXXXXXXXXXXXXXX",
"  oooo  XXXXXXXXXXXXXXXXXXXXXXXXXXXXXXXXXXXXXXXXXXXXXXXXXXXXXXXX",
"  oooo  XXXXXXXXXXXXXXXXXXXXXXXXXXXXXXXXXXXXXXXXXXXXXXXXXXXXXXXX",
"      XXXXXXXXXXXXXXXXXXXXXXXXXXXXXXXXXXXXXXXXXXXXXXXXXXXXXXXXXX",
"      XXXXXXXXXXXXXXXXXXXXXXXXXXXXXXXXXXXXXXXXXXXXXXXXXXXXXXXXXX"
};
