/* XPM */
static char *db9d3e85e2ec49388588d6660e986349EG1Ym5qglEkb4puO[] = {
/* columns rows colors chars-per-pixel */
"448 17 2 1 ",
"  c black",
". c #990030",
/* pixels */
".................                                                                                                                                                                                                                           .................                                                                                                                                                                                                   ",
".................                                                                                                                                                                                                                           .................                                                                                                                                                                                                   ",
".................                                                                                                                                                                                                                           .................                                                                                                                                                                                                   ",
".................                                                                                                                                                                                                                           .................                                                                                                                                                                                                   ",
".................                                                                                                                                                                                                                           .................                                                                                                                                                                                                   ",
".................                                                                                                                                                                                                                           .................                                                                                                                                                                                                   ",
".................                                                                                                                                                                                                                           .................                                                                                                                                                                                                   ",
".................                                                                                                                                                                                                                           .................                                                                                                                                                                                                   ",
".................                                                                                                                                                                                                                           .................                                                                                                                                                                                                   ",
".................                                                                                                                                                                                                                           .................                                                                                                                                                                                                   ",
".................                                                                                                                                                                                                                           .................                                                                                                                                                                                                   ",
".................                                                                                                                                                                                                                           .................                                                                                                                                                                                                   ",
".................                                                                                                                                                                                                                           .................                                                                                                                                                                                                   ",
".................                                                                                                                                                                                                                           .................                                                                                                                                                                                                   ",
".................                                                                                                                                                                                                                           .................                                                                                                                                                                                                   ",
".................                                                                                                                                                                                                                           .................                                                                                                                                                                                                   ",
".................                                                                                                                                                                                                                                                                                                                                                                                                                                               "
};
