/* XPM */
static char *a3415e6b8e4b4193abbc25ec40ff43253FCLPetwu891nVMB[] = {
/* columns rows colors chars-per-pixel */
"64 64 2 1 ",
"  c black",
". c white",
/* pixels */
"                                                                ",
"                                                                ",
"                                                                ",
"                                                                ",
"                                                                ",
"                                                                ",
"                                                                ",
"                                                                ",
"                                                                ",
"                                                                ",
"                                                                ",
"                                                                ",
"                                                                ",
"                                         ........               ",
"                                         ........               ",
"                                         ........               ",
"                                         ........               ",
"                                         ........               ",
"                                         ........               ",
"                                         ........               ",
"                                         ........               ",
"                                 ........                       ",
"                                 ........                       ",
"                                 ........                       ",
"                                 ........                       ",
"                                 ........                       ",
"                                 ........                       ",
"                                 ........                       ",
"                                 ........                       ",
"                         ........                               ",
"                         ........                               ",
"                         ........                               ",
"                         ........                               ",
"                         ........                               ",
"                         ........                               ",
"                         ........                               ",
"                         ........                               ",
"                         ........                               ",
"                         ........                               ",
"                         ........                               ",
"                         ........                               ",
"                         ........                               ",
"                         ........                               ",
"                         ........                               ",
"                         ........                               ",
"                 ........                                       ",
"                 ........                                       ",
"                 ........                                       ",
"                 ........                                       ",
"                 ........                                       ",
"                 ........                                       ",
"                 ........                                       ",
"                 ........                                       ",
"                                                                ",
"                                                                ",
"                                                                ",
"                                                                ",
"                                                                ",
"                                                                ",
"                                                                ",
"                                                                ",
"                                                                ",
"                                                                ",
"                                                                "
};
