/* XPM */
static char *_60c381361784f40aacfebe868e313c1DvFNMO8DLILPNyqi[] = {
/* columns rows colors chars-per-pixel */
"64 64 3 1 ",
"  c black",
". c #00B7EF",
"X c #B4B4B4",
/* pixels */
"................................................................",
"................................................................",
"................................................................",
"................................................................",
"..............................................  ................",
"..............................................  ................",
"............................................  XX  ..............",
"............................................  XX  ..............",
"..........................................  XX  ....  ..........",
"..........................................  XX  ....  ..........",
"........................................  XX  ....  XX  ........",
"........................................  XX  ....  XX  ........",
"......................................  XX  ....  XX  ....  ....",
"......................................  XX  ....  XX  ....  ....",
"....................................  XX  ....  XX  ....  XX  ..",
"....................................  XX  ....  XX  ....  XX  ..",
"..................................  XX  ....  XX  ....  XX  ....",
"..................................  XX  ....  XX  ....  XX  ....",
"................................  XX  ....  XX  ....  XX  ......",
"................................  XX  ....  XX  ....  XX  ......",
"................................  XX  ..  XX  ....  XX  ........",
"................................  XX  ..  XX  ....  XX  ........",
"................................  XX    XX  ....  XX  ..........",
"................................  XX    XX  ....  XX  ..........",
"................................  XXXXXX  ....  XX  ............",
"................................  XXXXXX  ....  XX  ............",
"................................  XXXXXX      XX  ..............",
"................................  XXXXXX      XX  ..............",
"..............................  XXXXXXXXXXXXXX  ................",
"..............................  XXXXXXXXXXXXXX  ................",
"............................  XXXXXX          ..................",
"............................  XXXXXX          ..................",
"..........................  XXXXXX  ............................",
"..........................  XXXXXX  ............................",
"........................  XXXXXX  ..............................",
"........................  XXXXXX  ..............................",
"......................  XXXXXX  ................................",
"......................  XXXXXX  ................................",
"....................  XXXXXX  ..................................",
"....................  XXXXXX  ..................................",
"..................  XXXXXX  ....................................",
"..................  XXXXXX  ....................................",
"................  XXXXXX  ......................................",
"................  XXXXXX  ......................................",
"..............  XXXXXX  ........................................",
"..............  XXXXXX  ........................................",
"............  XXXXXX  ..........................................",
"............  XXXXXX  ..........................................",
"..........  XXXXXX  ............................................",
"..........  XXXXXX  ............................................",
"........  XXXXXX  ..............................................",
"........  XXXXXX  ..............................................",
"......  XXXXXX  ................................................",
"......  XXXXXX  ................................................",
"....  XXXXXX  ..................................................",
"....  XXXXXX  ..................................................",
"..  XXXXXX  ....................................................",
"..  XXXXXX  ....................................................",
"  XXXXXX  ......................................................",
"  XXXXXX  ......................................................",
"  XXXX  ........................................................",
"  XXXX  ........................................................",
"      ..........................................................",
"      .........................................................."
};
