/* XPM */
static char *a070c65bf82d42f8a821ce11530b1c5eadCbJxWkknq7sVzh[] = {
/* columns rows colors chars-per-pixel */
"64 64 7 1 ",
"  c #000001",
". c #990030",
"X c #22B14C",
"o c #6F3198",
"O c #546D8E",
"+ c #4D6DF3",
"@ c #709AD1",
/* pixels */
"                                                                ",
" ++++++++++++++++++++++++++++++++++++++++++++++++++++++++++++++ ",
" +oooooooooooooooooooooooooooooooooooooooooooooooooooooooooooo+ ",
" +o                                                          o+ ",
" +o  ......................................................  o+ ",
" +o @ .................................................... @ o+ ",
" +o @@ .................................................. @@ o+ ",
" +o @@@ ................................................ @@@ o+ ",
" +o @@@@ .............................................. @@@@ o+ ",
" +o @@@@@ ............................................ @@@@@ o+ ",
" +o @@@@@@ .......................................... @@@@@@ o+ ",
" +o @@@@@@@ ........................................ @@@@@@@ o+ ",
" +o @@@@@@@@ ...................................... @@@@@@@@ o+ ",
" +o @@@@@@@@@ .................................... @@@@@@@@@ o+ ",
" +o @@@@@@@@@@                                    @@@@@@@@@@ o+ ",
" +o @@@@@@@@@@  OOOOOOOOOOOOOOOOOOOOOOOOOOOOOOOO  @@@@@@@@@@ o+ ",
" +o @@@@@@@@@@ O OOOOOOOOOOOOOOOOOOOOOOOOOOOOOO O @@@@@@@@@@ o+ ",
" +o @@@@@@@@@@ OO OOOOOOOOOOOOOOOOOOOOOOOOOOOO OO @@@@@@@@@@ o+ ",
" +o @@@@@@@@@@ OOO OOOOOOOOOOOOOOOOOOOOOOOOOO OOO @@@@@@@@@@ o+ ",
" +o @@@@@@@@@@ OOOO OOOOOOOOOOOOOOOOOOOOOOOO OOOO @@@@@@@@@@ o+ ",
" +o @@@@@@@@@@ OOOOO OOOOOOOOOOOOOOOOOOOOOO OOOOO @@@@@@@@@@ o+ ",
" +o @@@@@@@@@@ OOOOOO OOOOOOOOOOOOOOOOOOOO OOOOOO @@@@@@@@@@ o+ ",
" +o @@@@@@@@@@ OOOOOOO OOOOOOOOOOOOOOOOOO OOOOOOO @@@@@@@@@@ o+ ",
" +o @@@@@@@@@@ OOOOOOOO OOOOOOOOOOOOOOOO OOOOOOOO @@@@@@@@@@ o+ ",
" +o @@@@@@@@@@ OOOOOOOOO OOOOOOOOOOOOOO OOOOOOOOO @@@@@@@@@@ o+ ",
" +o @@@@@@@@@@ OOOOOOOOOO OOOOOOOOOOOO OOOOOOOOOO @@@@@@@@@@ o+ ",
" +o @@@@@@@@@@ OOOOOOOOOOO OOOOOOOOOO OOOOOOOOOOO @@@@@@@@@@ o+ ",
" +o @@@@@@@@@@ OOOOOOOOOOOO OOOOOOOO OOOOOOOOOOOO @@@@@@@@@@ o+ ",
" +o @@@@@@@@@@ OOOOOOOOOOOOO OOOOOO OOOOOOOOOOOOO @@@@@@@@@@ o+ ",
" +o @@@@@@@@@@ OOOOOOOOOOOOOO OOOO OOOOOOOOOOOOOO @@@@@@@@@@ o+ ",
" +o @@@@@@@@@@ OOOOOOOOOOOOOOO OO OOOOOOOOOOOOOOO @@@@@@@@@@ o+ ",
" +o @@@@@@@@@@ OOOOOOOOOOOOOOOO  OOOOOOOOOOOOOOOO @@@@@@@@@@ o+ ",
" +o @@@@@@@@@@ OOOOOOOOOOOOOOOO  OOOOOOOOOOOOOOOO @@@@@@@@@@ o+ ",
" +o @@@@@@@@@@ OOOOOOOOOOOOOOO OO OOOOOOOOOOOOOOO @@@@@@@@@@ o+ ",
" +o @@@@@@@@@@ OOOOOOOOOOOOOO OOOO OOOOOOOOOOOOOO @@@@@@@@@@ o+ ",
" +o @@@@@@@@@@ OOOOOOOOOOOOO OOOOOO OOOOOOOOOOOOO @@@@@@@@@@ o+ ",
" +o @@@@@@@@@@ OOOOOOOOOOOO OOOOOOOO OOOOOOOOOOOO @@@@@@@@@@ o+ ",
" +o @@@@@@@@@@ OOOOOOOOOOO OOOOOOOOOO OOOOOOOOOOO @@@@@@@@@@ o+ ",
" +o @@@@@@@@@@ OOOOOOOOOO OOOOOOOOOOOO OOOOOOOOOO @@@@@@@@@@ o+ ",
" +o @@@@@@@@@@ OOOOOOOOO OOOOOOOOOOOOOO OOOOOOOOO @@@@@@@@@@ o+ ",
" +o @@@@@@@@@@ OOOOOOOO OOOOOOOOOOOOOOOO OOOOOOOO @@@@@@@@@@ o+ ",
" +o @@@@@@@@@@ OOOOOOO OOOOOOOOOOOOOOOOOO OOOOOOO @@@@@@@@@@ o+ ",
" +o @@@@@@@@@@ OOOOOO OOOOOOOOOOOOOOOOOOOO OOOOOO @@@@@@@@@@ o+ ",
" +o @@@@@@@@@@ OOOOO OOOOOOOOOOOOOOOOOOOOOO OOOOO @@@@@@@@@@ o+ ",
" +o @@@@@@@@@@ OOOO OOOOOOOOOOOOOOOOOOOOOOOO OOOO @@@@@@@@@@ o+ ",
" +o @@@@@@@@@@ OOO OOOOOOOOOOOOOOOOOOOOOOOOOO OOO @@@@@@@@@@ o+ ",
" +o @@@@@@@@@@ OO OOOOOOOOOOOOOOOOOOOOOOOOOOOO OO @@@@@@@@@@ o+ ",
" +o @@@@@@@@@@ O OOOOOOOOOOOOOOOOOOOOOOOOOOOOOO O @@@@@@@@@@ o+ ",
" +o @@@@@@@@@@  OOOOOOOOOOOOOOOOOOOOOOOOOOOOOOOO  @@@@@@@@@@ o+ ",
" +o @@@@@@@@@@                                    @@@@@@@@@@ o+ ",
" +o @@@@@@@@@ XXXXXXXXXXXXXXXXXXXXXXXXXXXXXXXXXXXX @@@@@@@@@ o+ ",
" +o @@@@@@@@ XXXXXXXXXXXXXXXXXXXXXXXXXXXXXXXXXXXXXX @@@@@@@@ o+ ",
" +o @@@@@@@ XXXXXXXXXXXXXXXXXXXXXXXXXXXXXXXXXXXXXXXX @@@@@@@ o+ ",
" +o @@@@@@ XXXXXXXXXXXXXXXXXXXXXXXXXXXXXXXXXXXXXXXXXX @@@@@@ o+ ",
" +o @@@@@ XXXXXXXXXXXXXXXXXXXXXXXXXXXXXXXXXXXXXXXXXXXX @@@@@ o+ ",
" +o @@@@ XXXXXXXXXXXXXXXXXXXXXXXXXXXXXXXXXXXXXXXXXXXXXX @@@@ o+ ",
" +o @@@ XXXXXXXXXXXXXXXXXXXXXXXXXXXXXXXXXXXXXXXXXXXXXXXX @@@ o+ ",
" +o @@ XXXXXXXXXXXXXXXXXXXXXXXXXXXXXXXXXXXXXXXXXXXXXXXXXX @@ o+ ",
" +o @ XXXXXXXXXXXXXXXXXXXXXXXXXXXXXXXXXXXXXXXXXXXXXXXXXXXX @ o+ ",
" +o  XXXXXXXXXXXXXXXXXXXXXXXXXXXXXXXXXXXXXXXXXXXXXXXXXXXXXX  o+ ",
" +o                                                          o+ ",
" +oooooooooooooooooooooooooooooooooooooooooooooooooooooooooooo+ ",
" ++++++++++++++++++++++++++++++++++++++++++++++++++++++++++++++ ",
"                                                                "
};
