/* XPM */
static char *_73eb16c7b534569a4ad310dca7a71afx5lZCt09BEvR8GGG[] = {
/* columns rows colors chars-per-pixel */
"129 129 4 1 ",
"  c #000000",
". c #000001",
"X c #464646",
"o c #B4B4B4",
/* pixels */
"                                                                                                                                 ",
"                                                                                                                                 ",
"                                                                                                                                 ",
"                                                                                                                                 ",
"                                                                                                                                 ",
"                                                                                                                                 ",
"                                                                                                                                 ",
"                                                                                                                                 ",
"                                                                                                                                 ",
"                                                                                                                                 ",
"                                                                                                                                 ",
"                                                                                                                                 ",
"                                                                                                                                 ",
"                                                                                                                                 ",
"                                                                                                                                 ",
"                                                                                                                                 ",
"                                                                                                                                 ",
"                                                          ooooooooooooo                                                          ",
"                                                     oooo................ooo                                                     ",
"                                                 oo............................o                                                 ",
"                                               o..................................                                               ",
"                                            o........................................                                            ",
"                                          o.................          .................                                          ",
"                                         .............                      .............                                        ",
"                                       ............                            ............                                      ",
"                                      ..........                                  ..........                                     ",
"                                    ..........                                      ..........                                   ",
"                                   .........                                          .........                                  ",
"                                 .........                                              .........                                ",
"                                .........                                                .........                               ",
"                               ........                                                    ........                              ",
"                              ........                                                      ........                             ",
"                             .......                                                          .......                            ",
"                            .......                                                            .......                           ",
"                           .......                                                              .......                          ",
"                          .......                                                                .......                         ",
"                         .......                                                                  .......                        ",
"                         ......                                                                    ......                        ",
"                        ......                                                                      ......                       ",
"                       ......                                                                        ......                      ",
"                       ......                                                                        ......                      ",
"                      ......                                                                          ......                     ",
"                     ......                                                                            ......                    ",
"                     ......                                                                            ......                    ",
"                    ......                                                                              ......                   ",
"                    .....                                                                                .....                   ",
"                   ......                                                                                ......                  ",
"                   .....                                                                                  .....                  ",
"                   .......                                                                            .........                  ",
"                  .............                            ..........                            ...............                 ",
"                  ..................                    ................                    ....................                 ",
"                  .......................             ....................             .........................                 ",
"                 .....X.......................       ......................       .......................XXX.....                ",
"                 .....XXXXXX..................................XXXX..................................XXXXXXXX.....                ",
"                 .....XXXXXXXXXXX..........................XXXXXXXXXX..........................XXXXXXXXXXXXX.....                ",
"                 ....XXXXXXXXXXXXXXXXX...................XXXXXXXXXXXXXX...................XXXXXXXXXXXXXXXXXXX....                ",
"                 ....XXXXXXXXXXXXXXXXXXXXXX.............XXXXXXXXXXXXXXXX.............XXXXXXXXXXXXXXXXXXXXXXXX....                ",
"                .....XXXXXXXXXXXXXXXXXXXXXXXXXXX......XXXXXXXXXXXXXXXXXXXX......XXXXXXXXXXXXXXXXXXXXXXXXXXXXX.....               ",
"                .....XXXXXXXXXXXXXXXXXXXXXXXXXXX......XXXXXXXXXXXXXXXXXXXX......XXXXXXXXXXXXXXXXXXXXXXXXXXXXX.....               ",
"                .....XXXXXXXXXXXXXXXXXXXXXXXXXXX.....XXXXXXXXXXXXXXXXXXXXXX.....XXXXXXXXXXXXXXXXXXXXXXXXXXXXX.....               ",
"                ....XXXXXXXXXXXXXXXXXXXXXXXXXXX.....XXXXXXXXXXXXXXXXXXXXXXXX.....XXXXXXXXXXXXXXXXXXXXXXXXXXXXX....               ",
"                ....XXXXXXXXXXXXXXXXXXXXXXXXXXX.....XXXXXXXXXXXXXXXXXXXXXXXX.....XXXXXXXXXXXXXXXXXXXXXXXXXXXXX....               ",
"                ....XXXXXXXXXXXXXXXXXXXXXXXXXXX.....XXXXXXXXXXXXXXXXXXXXXXXX.....XXXXXXXXXXXXXXXXXXXXXXXXXXXXX....               ",
"                ....XXXXXXXXXXXXXXXXXXXXXXXXXXX....XXXXXXXXXXXXXXXXXXXXXXXXXX....XXXXXXXXXXXXXXXXXXXXXXXXXXXXX....               ",
"                ....XXXXXXXXXXXXXXXXXXXXXXXXXXX....XXXXXXXXXXXXXXXXXXXXXXXXXX....XXXXXXXXXXXXXXXXXXXXXXXXXXXXX....               ",
"                ....XXXXXXXXXXXXXXXXXXXXXXXXXXX....XXXXXXXXXXXXXXXXXXXXXXXXXX....XXXXXXXXXXXXXXXXXXXXXXXXXXXXX....               ",
"                ....XXXXXXXXXXXXXXXXXXXXXXXXXXX....XXXXXXXXXXXXXXXXXXXXXXXXXX....XXXXXXXXXXXXXXXXXXXXXXXXXXXXX....               ",
"                ....XXXXXXXXXXXXXXXXXXXXXXXXXXX.....XXXXXXXXXXXXXXXXXXXXXXXX.....XXXXXXXXXXXXXXXXXXXXXXXXXXXXX....               ",
"                ....XXXXXXXXXXXXXXXXXXXXXXXXXXX.....XXXXXXXXXXXXXXXXXXXXXXXX.....XXXXXXXXXXXXXXXXXXXXXXXXXXXXX....               ",
"                ....XXXXXXXXXXXXXXXXXXXXXXXXXXX.....XXXXXXXXXXXXXXXXXXXXXXXX.....XXXXXXXXXXXXXXXXXXXXXXXXXXXXX....               ",
"                .....XXXXXXXXXXXXXXXXXXXXXXXXXXX......XXXXXXXXXXXXXXXXXXXX......XXXXXXXXXXXXXXXXXXXXXXXXXXXXX.....               ",
"                .....XXXXXXXXXXXXXXXXXXXXXX...........XXXXXXXXXXXXXXXXXXXX...........XXXXXXXXXXXXXXXXXXXXXXXX.....               ",
"                .....XXXXXXXXXXXXXXXXX................XXXXXXXXXXXXXXXXXXXX................XXXXXXXXXXXXXXXXXXX.....               ",
"                 ....XXXXXXXXXXXX.......................XXXXXXXXXXXXXXXX.......................XXXXXXXXXXXXXX....                ",
"                 ....XXXXXXX.............................XXXXXXXXXXXXXX.............................XXXXXXXXX....                ",
"                 .....X.......................    .........XXXXXXXXXX.........    .......................XXX.....                ",
"                 ........................          ...........XXXX...........          ..........................                ",
"                 ...................                 ......................                 .....................                ",
"                  .............                       ....................                       ...............                 ",
"                  ........                              ................                              ..........                 ",
"                  .....                                    ..........                                      .....                 ",
"                   .....                                                                                  .....                  ",
"                   .....                                                                                  .....                  ",
"                   ......                                                                                ......                  ",
"                    .....                                                                                .....                   ",
"                    ......                                                                              ......                   ",
"                     ......                                                                            ......                    ",
"                     ......                                                                            ......                    ",
"                      ......                                                                          ......                     ",
"                       ......                                                                        ......                      ",
"                       ......                                                                        ......                      ",
"                        ......                                                                      ......                       ",
"                         ......                                                                    ......                        ",
"                         .......                                                                  .......                        ",
"                          .......                                                                .......                         ",
"                           .......                                                              .......                          ",
"                            .......                                                            .......                           ",
"                             .......                                                          .......                            ",
"                              ........                                                      ........                             ",
"                               ........                                                    ........                              ",
"                                .........                                                .........                               ",
"                                 .........                                              .........                                ",
"                                   .........                                          .........                                  ",
"                                    ..........                                      ..........                                   ",
"                                      ..........                                  ..........                                     ",
"                                       ............                            ............                                      ",
"                                         .............                      .............                                        ",
"                                           .................          .................                                          ",
"                                             ........................................                                            ",
"                                                ..................................                                               ",
"                                                   ............................                                                  ",
"                                                         ................                                                        ",
"                                                                                                                                 ",
"                                                                                                                                 ",
"                                                                                                                                 ",
"                                                                                                                                 ",
"                                                                                                                                 ",
"                                                                                                                                 ",
"                                                                                                                                 ",
"                                                                                                                                 ",
"                                                                                                                                 ",
"                                                                                                                                 ",
"                                                                                                                                 ",
"                                                                                                                                 ",
"                                                                                                                                 ",
"                                                                                                                                 ",
"                                                                                                                                 ",
"                                                                                                                                 ",
"                                                                                                                                 "
};
